# Blender 5.0.1
# www.blender.org
mtllib Sergei.mtl
o Cylinder
v 0.000000 -1.000000 -1.000000
v 0.000000 1.000000 -1.000000
v 0.195090 -1.000000 -0.980785
v 0.195090 1.000000 -0.980785
v 0.382683 -1.000000 -0.923880
v 0.382683 1.000000 -0.923880
v 0.555570 -1.000000 -0.831470
v 0.555570 1.000000 -0.831470
v 0.707107 -1.000000 -0.707107
v 0.707107 1.000000 -0.707107
v 0.831470 -1.000000 -0.555570
v 0.831470 1.000000 -0.555570
v 0.923880 -1.000000 -0.382683
v 0.923880 1.000000 -0.382683
v 0.980785 -1.000000 -0.195090
v 0.980785 1.000000 -0.195090
v 1.000000 -1.000000 0.000000
v 1.000000 1.000000 0.000000
v 0.980785 -1.000000 0.195090
v 0.980785 1.000000 0.195090
v 0.923880 -1.000000 0.382683
v 0.923880 1.000000 0.382683
v 0.831470 -1.000000 0.555570
v 0.831470 1.000000 0.555570
v 0.707107 -1.000000 0.707107
v 0.707107 1.000000 0.707107
v 0.555570 -1.000000 0.831470
v 0.555570 1.000000 0.831470
v 0.382683 -1.000000 0.923880
v 0.382683 1.000000 0.923880
v 0.195090 -1.000000 0.980785
v 0.195090 1.000000 0.980785
v 0.000000 -1.000000 1.000000
v 0.000000 1.000000 1.000000
v -0.195090 -1.000000 0.980785
v -0.195090 1.000000 0.980785
v -0.382683 -1.000000 0.923880
v -0.382683 1.000000 0.923880
v -0.555570 -1.000000 0.831470
v -0.555570 1.000000 0.831470
v -0.707107 -1.000000 0.707107
v -0.707107 1.000000 0.707107
v -0.831470 -1.000000 0.555570
v -0.831470 1.000000 0.555570
v -0.923880 -1.000000 0.382683
v -0.923880 1.000000 0.382683
v -0.980785 -1.000000 0.195090
v -0.980785 1.000000 0.195090
v -1.000000 -1.000000 0.000000
v -1.000000 1.000000 0.000000
v -0.980785 -1.000000 -0.195090
v -0.980785 1.000000 -0.195090
v -0.923880 -1.000000 -0.382683
v -0.923880 1.000000 -0.382683
v -0.831470 -1.000000 -0.555570
v -0.831470 1.000000 -0.555570
v -0.707107 -1.000000 -0.707107
v -0.707107 1.000000 -0.707107
v -0.555570 -1.000000 -0.831470
v -0.555570 1.000000 -0.831470
v -0.382683 -1.000000 -0.923880
v -0.382683 1.000000 -0.923880
v -0.195090 -1.000000 -0.980785
v -0.195090 1.000000 -0.980785
vn 0.0980 -0.0000 -0.9952
vn 0.2903 -0.0000 -0.9569
vn 0.4714 -0.0000 -0.8819
vn 0.6344 -0.0000 -0.7730
vn 0.7730 -0.0000 -0.6344
vn 0.8819 -0.0000 -0.4714
vn 0.9569 -0.0000 -0.2903
vn 0.9952 -0.0000 -0.0980
vn 0.9952 -0.0000 0.0980
vn 0.9569 -0.0000 0.2903
vn 0.8819 -0.0000 0.4714
vn 0.7730 -0.0000 0.6344
vn 0.6344 -0.0000 0.7730
vn 0.4714 -0.0000 0.8819
vn 0.2903 -0.0000 0.9569
vn 0.0980 -0.0000 0.9952
vn -0.0980 -0.0000 0.9952
vn -0.2903 -0.0000 0.9569
vn -0.4714 -0.0000 0.8819
vn -0.6344 -0.0000 0.7730
vn -0.7730 -0.0000 0.6344
vn -0.8819 -0.0000 0.4714
vn -0.9569 -0.0000 0.2903
vn -0.9952 -0.0000 0.0980
vn -0.9952 -0.0000 -0.0980
vn -0.9569 -0.0000 -0.2903
vn -0.8819 -0.0000 -0.4714
vn -0.7730 -0.0000 -0.6344
vn -0.6344 -0.0000 -0.7730
vn -0.4714 -0.0000 -0.8819
vn -0.0000 1.0000 -0.0000
vn -0.2903 -0.0000 -0.9569
vn -0.0980 -0.0000 -0.9952
vn -0.0000 -1.0000 -0.0000
vt 1.228702 0.249169
vt 1.225273 0.979038
vt 1.179764 0.978823
vt 1.183193 0.249061
vt 1.134255 0.978608
vt 1.137683 0.248991
vt 1.088745 0.978393
vt 1.092175 0.249004
vt 1.043236 0.978178
vt 1.046666 0.248996
vt 0.997727 0.977963
vt 1.001158 0.248967
vt 0.952218 0.977748
vt 0.955649 0.248917
vt 0.906708 0.977533
vt 0.910141 0.248845
vt 0.861199 0.977318
vt 0.864632 0.248753
vt 0.815690 0.977103
vt 0.819124 0.248642
vt 0.770180 0.976888
vt 0.773615 0.248515
vt 0.724671 0.976673
vt 0.728107 0.248371
vt 0.679161 0.976458
vt 0.682598 0.248211
vt 0.633652 0.976243
vt 0.637090 0.248036
vt 0.588143 0.976028
vt 0.591581 0.247849
vt 0.542634 0.975813
vt 0.546072 0.247653
vt 0.497124 0.975598
vt 0.500563 0.247449
vt 0.451615 0.975383
vt 0.455054 0.247239
vt 0.406106 0.975168
vt 0.409545 0.247026
vt 0.360596 0.974953
vt 0.364036 0.246810
vt 0.315087 0.974738
vt 0.318527 0.246594
vt 0.269578 0.974523
vt 0.273018 0.246377
vt 0.224068 0.974308
vt 0.227508 0.246161
vt 0.178559 0.974093
vt 0.181999 0.245946
vt 0.133050 0.973878
vt 0.136490 0.245730
vt 0.087540 0.973663
vt 0.090980 0.245517
vt 0.042031 0.973448
vt 0.045471 0.245302
vt -0.003478 0.973233
vt -0.000038 0.245090
vt -0.048988 0.973018
vt -0.045548 0.244883
vt -0.094497 0.972803
vt -0.091057 0.244679
vt -0.140006 0.972588
vt -0.136567 0.244486
vt 0.204777 0.224772
vt 0.136559 0.231166
vt 0.068404 0.224128
vt 0.002932 0.203929
vt -0.057341 0.171345
vt -0.110100 0.127629
vt -0.153316 0.074460
vt -0.185329 0.013881
vt -0.204908 -0.051779
vt -0.211302 -0.119997
vt -0.204264 -0.188151
vt -0.184065 -0.253623
vt -0.151481 -0.313897
vt -0.107765 -0.366655
vt -0.054596 -0.409871
vt 0.005983 -0.441884
vt 0.071643 -0.461464
vt 0.139861 -0.467857
vt 0.208016 -0.460819
vt 0.273488 -0.440620
vt 0.333761 -0.408037
vt 0.386519 -0.364320
vt 0.429735 -0.311151
vt 0.461748 -0.250572
vt 0.481328 -0.184912
vt 0.487721 -0.116694
vt 0.480683 -0.048540
vt 0.460484 0.016932
vt 0.427901 0.077206
vt 0.384184 0.129964
vt 0.331015 0.173180
vt 0.270436 0.205193
vt -0.185516 0.972373
vt -0.182077 0.244304
vt -0.231025 0.972158
vt -0.227587 0.244132
vt 0.864685 0.234201
vt 0.932889 0.227622
vt 0.998511 0.207831
vt 1.059020 0.175593
vt 1.112087 0.132169
vt 1.155671 0.079227
vt 1.188098 0.018804
vt 1.208128 -0.046760
vt 1.214999 -0.114943
vt 1.208452 -0.183134
vt 1.188751 -0.248703
vt 1.156665 -0.309133
vt 1.113425 -0.362118
vt 1.060697 -0.405627
vt 1.000522 -0.437986
vt 0.935192 -0.457974
vt 0.867210 -0.464826
vt 0.799179 -0.458281
vt 0.733704 -0.438588
vt 0.673287 -0.406501
vt 0.620242 -0.363243
vt 0.576608 -0.310465
vt 0.544062 -0.250185
vt 0.523880 -0.184712
vt 0.516845 -0.116557
vt 0.523237 -0.048339
vt 0.542810 0.017319
vt 0.574815 0.077892
vt 0.618021 0.131042
vt 0.670776 0.174717
vt 0.731052 0.207227
vt 0.796530 0.227313
s 0
usemtl Material.006
f 1/1/1 2/2/1 4/3/1 3/4/1
f 3/4/2 4/3/2 6/5/2 5/6/2
f 5/6/3 6/5/3 8/7/3 7/8/3
f 7/8/4 8/7/4 10/9/4 9/10/4
f 9/10/5 10/9/5 12/11/5 11/12/5
f 11/12/6 12/11/6 14/13/6 13/14/6
f 13/14/7 14/13/7 16/15/7 15/16/7
f 15/16/8 16/15/8 18/17/8 17/18/8
f 17/18/9 18/17/9 20/19/9 19/20/9
f 19/20/10 20/19/10 22/21/10 21/22/10
f 21/22/11 22/21/11 24/23/11 23/24/11
f 23/24/12 24/23/12 26/25/12 25/26/12
f 25/26/13 26/25/13 28/27/13 27/28/13
f 27/28/14 28/27/14 30/29/14 29/30/14
f 29/30/15 30/29/15 32/31/15 31/32/15
f 31/32/16 32/31/16 34/33/16 33/34/16
f 33/34/17 34/33/17 36/35/17 35/36/17
f 35/36/18 36/35/18 38/37/18 37/38/18
f 37/38/19 38/37/19 40/39/19 39/40/19
f 39/40/20 40/39/20 42/41/20 41/42/20
f 41/42/21 42/41/21 44/43/21 43/44/21
f 43/44/22 44/43/22 46/45/22 45/46/22
f 45/46/23 46/45/23 48/47/23 47/48/23
f 47/48/24 48/47/24 50/49/24 49/50/24
f 49/50/25 50/49/25 52/51/25 51/52/25
f 51/52/26 52/51/26 54/53/26 53/54/26
f 53/54/27 54/53/27 56/55/27 55/56/27
f 55/56/28 56/55/28 58/57/28 57/58/28
f 57/58/29 58/57/29 60/59/29 59/60/29
f 59/60/30 60/59/30 62/61/30 61/62/30
f 4/63/31 2/64/31 64/65/31 62/66/31 60/67/31 58/68/31 56/69/31 54/70/31 52/71/31 50/72/31 48/73/31 46/74/31 44/75/31 42/76/31 40/77/31 38/78/31 36/79/31 34/80/31 32/81/31 30/82/31 28/83/31 26/84/31 24/85/31 22/86/31 20/87/31 18/88/31 16/89/31 14/90/31 12/91/31 10/92/31 8/93/31 6/94/31
f 61/62/32 62/61/32 64/95/32 63/96/32
f 63/96/33 64/95/33 2/97/33 1/98/33
f 1/99/34 3/100/34 5/101/34 7/102/34 9/103/34 11/104/34 13/105/34 15/106/34 17/107/34 19/108/34 21/109/34 23/110/34 25/111/34 27/112/34 29/113/34 31/114/34 33/115/34 35/116/34 37/117/34 39/118/34 41/119/34 43/120/34 45/121/34 47/122/34 49/123/34 51/124/34 53/125/34 55/126/34 57/127/34 59/128/34 61/129/34 63/130/34
