# Blender 5.0.1
# www.blender.org
mtllib csSphere.mtl
o Cube
v -1.000000 -1.000000 1.000000
v -1.000000 1.000000 1.000000
v -1.000000 -1.000000 -1.000000
v -1.000000 1.000000 -1.000000
v 1.000000 -1.000000 1.000000
v 1.000000 1.000000 1.000000
v 1.000000 -1.000000 -1.000000
v 1.000000 1.000000 -1.000000
vn -1.0000 -0.0000 -0.0000
vn -0.0000 -0.0000 -1.0000
vn 1.0000 -0.0000 -0.0000
vn -0.0000 -0.0000 1.0000
vn -0.0000 -1.0000 -0.0000
vn -0.0000 1.0000 -0.0000
vt 2.913757 0.049935
vt 2.908288 1.007622
vt 1.950601 1.002153
vt 1.956070 0.044466
vt 0.997416 1.001238
vt 1.002937 0.034494
vt 0.030673 0.995717
vt 0.036194 0.028973
vt -0.922460 0.985745
vt -0.916991 0.028058
vt 1.003852 -0.918691
vt 0.046165 -0.924160
vt 0.987445 1.954370
vt 0.029757 1.948901
s 0
usemtl Material.005
f 1/1/1 2/2/1 4/3/1 3/4/1
f 3/4/2 4/3/2 8/5/2 7/6/2
f 7/6/3 8/5/3 6/7/3 5/8/3
f 5/8/4 6/7/4 2/9/4 1/10/4
f 3/11/5 7/6/5 5/8/5 1/12/5
f 8/5/6 4/13/6 2/14/6 6/7/6
